<mxfile host="app.diagrams.net" agent="Mozilla/5.0 (Windows NT 10.0; Win64; x64) AppleWebKit/537.36 (KHTML, like Gecko) Chrome/132.0.0.0 Safari/537.36" version="26.0.11">
  <diagram name="Page-1" id="EmIwi8mViLnrvBTaNk8c">
    <mxGraphModel dx="2416" dy="1069" grid="1" gridSize="10" guides="1" tooltips="1" connect="1" arrows="1" fold="1" page="1" pageScale="1" pageWidth="850" pageHeight="1100" math="0" shadow="0">
      <root>
        <mxCell id="0" />
        <mxCell id="1" parent="0" />
        <mxCell id="9Pz00_coDXl9NxjRs66u-39" style="edgeStyle=orthogonalEdgeStyle;rounded=0;orthogonalLoop=1;jettySize=auto;html=1;exitX=0.5;exitY=1;exitDx=0;exitDy=0;endArrow=none;startFill=0;" edge="1" parent="1" source="9Pz00_coDXl9NxjRs66u-1">
          <mxGeometry relative="1" as="geometry">
            <mxPoint x="460" y="280" as="targetPoint" />
          </mxGeometry>
        </mxCell>
        <mxCell id="9Pz00_coDXl9NxjRs66u-1" value="&lt;font style=&quot;font-size: 18px;&quot;&gt;AUTOSERVISA SISTĒMA&lt;/font&gt;" style="rounded=0;whiteSpace=wrap;html=1;strokeWidth=5;" vertex="1" parent="1">
          <mxGeometry x="360" y="120" width="200" height="120" as="geometry" />
        </mxCell>
        <mxCell id="9Pz00_coDXl9NxjRs66u-3" value="&lt;font style=&quot;font-size: 20px;&quot;&gt;VIESU DARBĪBAS&lt;/font&gt;" style="rounded=0;whiteSpace=wrap;html=1;strokeWidth=3;" vertex="1" parent="1">
          <mxGeometry x="-120" y="320" width="200" height="120" as="geometry" />
        </mxCell>
        <mxCell id="9Pz00_coDXl9NxjRs66u-70" style="edgeStyle=orthogonalEdgeStyle;rounded=0;orthogonalLoop=1;jettySize=auto;html=1;exitX=0;exitY=0.5;exitDx=0;exitDy=0;endArrow=none;startFill=0;" edge="1" parent="1" source="9Pz00_coDXl9NxjRs66u-4">
          <mxGeometry relative="1" as="geometry">
            <mxPoint x="160" y="380.21212121212125" as="targetPoint" />
          </mxGeometry>
        </mxCell>
        <mxCell id="9Pz00_coDXl9NxjRs66u-4" value="&lt;font style=&quot;font-size: 20px;&quot;&gt;KLIENTA DARBĪBAS&lt;/font&gt;" style="rounded=0;whiteSpace=wrap;html=1;strokeWidth=3;" vertex="1" parent="1">
          <mxGeometry x="200" y="320" width="200" height="120" as="geometry" />
        </mxCell>
        <mxCell id="9Pz00_coDXl9NxjRs66u-40" style="edgeStyle=orthogonalEdgeStyle;rounded=0;orthogonalLoop=1;jettySize=auto;html=1;exitX=0.5;exitY=0;exitDx=0;exitDy=0;endArrow=none;startFill=0;" edge="1" parent="1" source="9Pz00_coDXl9NxjRs66u-5">
          <mxGeometry relative="1" as="geometry">
            <mxPoint x="620" y="280" as="targetPoint" />
          </mxGeometry>
        </mxCell>
        <mxCell id="9Pz00_coDXl9NxjRs66u-75" style="edgeStyle=orthogonalEdgeStyle;rounded=0;orthogonalLoop=1;jettySize=auto;html=1;exitX=0;exitY=0.5;exitDx=0;exitDy=0;endArrow=none;startFill=0;" edge="1" parent="1" source="9Pz00_coDXl9NxjRs66u-5">
          <mxGeometry relative="1" as="geometry">
            <mxPoint x="480" y="380.21212121212125" as="targetPoint" />
          </mxGeometry>
        </mxCell>
        <mxCell id="9Pz00_coDXl9NxjRs66u-5" value="&lt;span style=&quot;font-size: 20px;&quot;&gt;DARBINIEKU DARBĪBAS&lt;/span&gt;" style="rounded=0;whiteSpace=wrap;html=1;strokeWidth=3;" vertex="1" parent="1">
          <mxGeometry x="520" y="320" width="200" height="120" as="geometry" />
        </mxCell>
        <mxCell id="9Pz00_coDXl9NxjRs66u-68" style="edgeStyle=orthogonalEdgeStyle;rounded=0;orthogonalLoop=1;jettySize=auto;html=1;exitX=0;exitY=0.5;exitDx=0;exitDy=0;endArrow=none;startFill=0;" edge="1" parent="1" source="9Pz00_coDXl9NxjRs66u-6">
          <mxGeometry relative="1" as="geometry">
            <mxPoint x="-160" y="700.2121212121212" as="targetPoint" />
          </mxGeometry>
        </mxCell>
        <mxCell id="9Pz00_coDXl9NxjRs66u-6" value="&lt;span style=&quot;font-size: 20px;&quot;&gt;Ienākšana esošā kontā&lt;/span&gt;" style="rounded=0;whiteSpace=wrap;html=1;strokeWidth=1;" vertex="1" parent="1">
          <mxGeometry x="-120" y="640" width="200" height="120" as="geometry" />
        </mxCell>
        <mxCell id="9Pz00_coDXl9NxjRs66u-71" style="edgeStyle=orthogonalEdgeStyle;rounded=0;orthogonalLoop=1;jettySize=auto;html=1;exitX=0;exitY=0.5;exitDx=0;exitDy=0;endArrow=none;startFill=0;" edge="1" parent="1" source="9Pz00_coDXl9NxjRs66u-9">
          <mxGeometry relative="1" as="geometry">
            <mxPoint x="160" y="540.2121212121212" as="targetPoint" />
          </mxGeometry>
        </mxCell>
        <mxCell id="9Pz00_coDXl9NxjRs66u-9" value="&lt;font style=&quot;font-size: 20px;&quot;&gt;Konta informācijas rediģēšana&lt;/font&gt;" style="rounded=0;whiteSpace=wrap;html=1;strokeWidth=1;" vertex="1" parent="1">
          <mxGeometry x="200" y="480" width="200" height="120" as="geometry" />
        </mxCell>
        <mxCell id="9Pz00_coDXl9NxjRs66u-74" style="edgeStyle=orthogonalEdgeStyle;rounded=0;orthogonalLoop=1;jettySize=auto;html=1;exitX=0;exitY=0.5;exitDx=0;exitDy=0;endArrow=none;startFill=0;" edge="1" parent="1" source="9Pz00_coDXl9NxjRs66u-13">
          <mxGeometry relative="1" as="geometry">
            <mxPoint x="480" y="540.2121212121212" as="targetPoint" />
          </mxGeometry>
        </mxCell>
        <mxCell id="9Pz00_coDXl9NxjRs66u-13" value="&lt;span style=&quot;font-size: 20px;&quot;&gt;Remontdarbu atcelšana&lt;/span&gt;" style="rounded=0;whiteSpace=wrap;html=1;strokeWidth=1;" vertex="1" parent="1">
          <mxGeometry x="520" y="480" width="200" height="120" as="geometry" />
        </mxCell>
        <mxCell id="9Pz00_coDXl9NxjRs66u-73" style="edgeStyle=orthogonalEdgeStyle;rounded=0;orthogonalLoop=1;jettySize=auto;html=1;exitX=0;exitY=0.5;exitDx=0;exitDy=0;endArrow=none;startFill=0;" edge="1" parent="1" source="9Pz00_coDXl9NxjRs66u-14">
          <mxGeometry relative="1" as="geometry">
            <mxPoint x="480" y="700.2121212121212" as="targetPoint" />
          </mxGeometry>
        </mxCell>
        <mxCell id="9Pz00_coDXl9NxjRs66u-14" value="&lt;span style=&quot;font-size: 20px;&quot;&gt;Remontdarbu pabeigšana&lt;/span&gt;" style="rounded=0;whiteSpace=wrap;html=1;strokeWidth=1;" vertex="1" parent="1">
          <mxGeometry x="520" y="640" width="200" height="120" as="geometry" />
        </mxCell>
        <mxCell id="9Pz00_coDXl9NxjRs66u-76" style="edgeStyle=orthogonalEdgeStyle;rounded=0;orthogonalLoop=1;jettySize=auto;html=1;exitX=0;exitY=0.5;exitDx=0;exitDy=0;endArrow=none;startFill=0;" edge="1" parent="1" source="9Pz00_coDXl9NxjRs66u-15">
          <mxGeometry relative="1" as="geometry">
            <mxPoint x="800" y="380.21212121212125" as="targetPoint" />
          </mxGeometry>
        </mxCell>
        <mxCell id="9Pz00_coDXl9NxjRs66u-15" value="&lt;font style=&quot;font-size: 20px;&quot;&gt;ADMINISTRATORU DARBĪBAS&lt;/font&gt;" style="rounded=0;whiteSpace=wrap;html=1;strokeWidth=3;" vertex="1" parent="1">
          <mxGeometry x="840" y="320" width="200" height="120" as="geometry" />
        </mxCell>
        <mxCell id="9Pz00_coDXl9NxjRs66u-77" style="edgeStyle=orthogonalEdgeStyle;rounded=0;orthogonalLoop=1;jettySize=auto;html=1;exitX=0;exitY=0.5;exitDx=0;exitDy=0;endArrow=none;startFill=0;" edge="1" parent="1" source="9Pz00_coDXl9NxjRs66u-16">
          <mxGeometry relative="1" as="geometry">
            <mxPoint x="800" y="540.2121212121212" as="targetPoint" />
          </mxGeometry>
        </mxCell>
        <mxCell id="9Pz00_coDXl9NxjRs66u-16" value="&lt;font style=&quot;font-size: 20px;&quot;&gt;Jaunu darbinieku pievienošana&lt;/font&gt;" style="rounded=0;whiteSpace=wrap;html=1;strokeWidth=1;" vertex="1" parent="1">
          <mxGeometry x="840" y="480" width="200" height="120" as="geometry" />
        </mxCell>
        <mxCell id="9Pz00_coDXl9NxjRs66u-62" style="edgeStyle=orthogonalEdgeStyle;rounded=0;orthogonalLoop=1;jettySize=auto;html=1;exitX=0;exitY=0.5;exitDx=0;exitDy=0;endArrow=none;startFill=0;" edge="1" parent="1" source="9Pz00_coDXl9NxjRs66u-18">
          <mxGeometry relative="1" as="geometry">
            <mxPoint x="800" y="700.2121212121212" as="targetPoint" />
          </mxGeometry>
        </mxCell>
        <mxCell id="9Pz00_coDXl9NxjRs66u-18" value="&lt;font style=&quot;font-size: 20px;&quot;&gt;Darbinieku rediģēšana, dzēšana&lt;/font&gt;" style="rounded=0;whiteSpace=wrap;html=1;strokeWidth=1;" vertex="1" parent="1">
          <mxGeometry x="840" y="640" width="200" height="120" as="geometry" />
        </mxCell>
        <mxCell id="9Pz00_coDXl9NxjRs66u-72" style="edgeStyle=orthogonalEdgeStyle;rounded=0;orthogonalLoop=1;jettySize=auto;html=1;exitX=0;exitY=0.5;exitDx=0;exitDy=0;endArrow=none;startFill=0;" edge="1" parent="1" source="9Pz00_coDXl9NxjRs66u-20">
          <mxGeometry relative="1" as="geometry">
            <mxPoint x="160" y="700.2121212121212" as="targetPoint" />
          </mxGeometry>
        </mxCell>
        <mxCell id="9Pz00_coDXl9NxjRs66u-20" value="&lt;font style=&quot;font-size: 20px;&quot;&gt;Jauna remonta pieteikšana&lt;/font&gt;" style="rounded=0;whiteSpace=wrap;html=1;strokeWidth=1;" vertex="1" parent="1">
          <mxGeometry x="200" y="640" width="200" height="120" as="geometry" />
        </mxCell>
        <mxCell id="9Pz00_coDXl9NxjRs66u-67" style="edgeStyle=orthogonalEdgeStyle;rounded=0;orthogonalLoop=1;jettySize=auto;html=1;exitX=0;exitY=0.5;exitDx=0;exitDy=0;endArrow=none;startFill=0;" edge="1" parent="1" source="9Pz00_coDXl9NxjRs66u-21">
          <mxGeometry relative="1" as="geometry">
            <mxPoint x="160" y="860.2121212121212" as="targetPoint" />
          </mxGeometry>
        </mxCell>
        <mxCell id="9Pz00_coDXl9NxjRs66u-21" value="&lt;font style=&quot;font-size: 20px;&quot;&gt;Pieteikta remonta&amp;nbsp; atcelšana&lt;/font&gt;" style="rounded=0;whiteSpace=wrap;html=1;strokeWidth=1;" vertex="1" parent="1">
          <mxGeometry x="200" y="800" width="200" height="120" as="geometry" />
        </mxCell>
        <mxCell id="9Pz00_coDXl9NxjRs66u-66" style="edgeStyle=orthogonalEdgeStyle;rounded=0;orthogonalLoop=1;jettySize=auto;html=1;exitX=0;exitY=0.5;exitDx=0;exitDy=0;endArrow=none;startFill=0;" edge="1" parent="1" source="9Pz00_coDXl9NxjRs66u-22">
          <mxGeometry relative="1" as="geometry">
            <mxPoint x="480" y="860.2121212121212" as="targetPoint" />
          </mxGeometry>
        </mxCell>
        <mxCell id="9Pz00_coDXl9NxjRs66u-22" value="&lt;span style=&quot;font-size: 20px;&quot;&gt;Remontdarbu laika rediģēšana&lt;/span&gt;" style="rounded=0;whiteSpace=wrap;html=1;strokeWidth=1;" vertex="1" parent="1">
          <mxGeometry x="520" y="800" width="200" height="120" as="geometry" />
        </mxCell>
        <mxCell id="9Pz00_coDXl9NxjRs66u-65" style="edgeStyle=orthogonalEdgeStyle;rounded=0;orthogonalLoop=1;jettySize=auto;html=1;exitX=0;exitY=0.5;exitDx=0;exitDy=0;endArrow=none;startFill=0;" edge="1" parent="1" source="9Pz00_coDXl9NxjRs66u-25">
          <mxGeometry relative="1" as="geometry">
            <mxPoint x="800" y="860.2121212121212" as="targetPoint" />
          </mxGeometry>
        </mxCell>
        <mxCell id="9Pz00_coDXl9NxjRs66u-25" value="&lt;span style=&quot;font-size: 20px;&quot;&gt;Remontdarbu dzēšana&lt;/span&gt;" style="rounded=0;whiteSpace=wrap;html=1;strokeWidth=1;" vertex="1" parent="1">
          <mxGeometry x="840" y="800" width="200" height="120" as="geometry" />
        </mxCell>
        <mxCell id="9Pz00_coDXl9NxjRs66u-69" style="edgeStyle=orthogonalEdgeStyle;rounded=0;orthogonalLoop=1;jettySize=auto;html=1;exitX=0;exitY=0.5;exitDx=0;exitDy=0;endArrow=none;startFill=0;" edge="1" parent="1" source="9Pz00_coDXl9NxjRs66u-38">
          <mxGeometry relative="1" as="geometry">
            <mxPoint x="-160" y="540.2121212121212" as="targetPoint" />
          </mxGeometry>
        </mxCell>
        <mxCell id="9Pz00_coDXl9NxjRs66u-38" value="&lt;font style=&quot;font-size: 20px;&quot;&gt;Jauna konta izveide&lt;/font&gt;" style="rounded=0;whiteSpace=wrap;html=1;strokeWidth=1;" vertex="1" parent="1">
          <mxGeometry x="-120" y="480" width="200" height="120" as="geometry" />
        </mxCell>
        <mxCell id="9Pz00_coDXl9NxjRs66u-41" style="edgeStyle=orthogonalEdgeStyle;rounded=0;orthogonalLoop=1;jettySize=auto;html=1;endArrow=none;startFill=0;" edge="1" parent="1">
          <mxGeometry relative="1" as="geometry">
            <mxPoint x="-20" y="280" as="targetPoint" />
            <mxPoint x="940" y="280" as="sourcePoint" />
          </mxGeometry>
        </mxCell>
        <mxCell id="9Pz00_coDXl9NxjRs66u-42" style="edgeStyle=orthogonalEdgeStyle;rounded=0;orthogonalLoop=1;jettySize=auto;html=1;exitX=0.5;exitY=0;exitDx=0;exitDy=0;endArrow=none;startFill=0;" edge="1" parent="1">
          <mxGeometry relative="1" as="geometry">
            <mxPoint x="299.57" y="280" as="targetPoint" />
            <mxPoint x="299.57" y="320" as="sourcePoint" />
          </mxGeometry>
        </mxCell>
        <mxCell id="9Pz00_coDXl9NxjRs66u-43" style="edgeStyle=orthogonalEdgeStyle;rounded=0;orthogonalLoop=1;jettySize=auto;html=1;exitX=0.5;exitY=0;exitDx=0;exitDy=0;endArrow=none;startFill=0;" edge="1" parent="1">
          <mxGeometry relative="1" as="geometry">
            <mxPoint x="-20.43" y="280" as="targetPoint" />
            <mxPoint x="-20.43" y="320" as="sourcePoint" />
          </mxGeometry>
        </mxCell>
        <mxCell id="9Pz00_coDXl9NxjRs66u-44" style="edgeStyle=orthogonalEdgeStyle;rounded=0;orthogonalLoop=1;jettySize=auto;html=1;exitX=0.5;exitY=0;exitDx=0;exitDy=0;endArrow=none;startFill=0;" edge="1" parent="1">
          <mxGeometry relative="1" as="geometry">
            <mxPoint x="939.5699999999999" y="280" as="targetPoint" />
            <mxPoint x="939.5699999999999" y="320" as="sourcePoint" />
          </mxGeometry>
        </mxCell>
        <mxCell id="9Pz00_coDXl9NxjRs66u-45" style="edgeStyle=orthogonalEdgeStyle;rounded=0;orthogonalLoop=1;jettySize=auto;html=1;endArrow=none;startFill=0;" edge="1" parent="1">
          <mxGeometry relative="1" as="geometry">
            <mxPoint x="-160" y="380" as="targetPoint" />
            <mxPoint x="-160" y="700" as="sourcePoint" />
          </mxGeometry>
        </mxCell>
        <mxCell id="9Pz00_coDXl9NxjRs66u-47" style="edgeStyle=orthogonalEdgeStyle;rounded=0;orthogonalLoop=1;jettySize=auto;html=1;exitX=0;exitY=0.5;exitDx=0;exitDy=0;endArrow=none;startFill=0;" edge="1" parent="1" source="9Pz00_coDXl9NxjRs66u-3">
          <mxGeometry relative="1" as="geometry">
            <mxPoint x="-160" y="380" as="targetPoint" />
            <mxPoint x="-140" y="420" as="sourcePoint" />
          </mxGeometry>
        </mxCell>
        <mxCell id="9Pz00_coDXl9NxjRs66u-50" style="edgeStyle=orthogonalEdgeStyle;rounded=0;orthogonalLoop=1;jettySize=auto;html=1;endArrow=none;startFill=0;" edge="1" parent="1">
          <mxGeometry relative="1" as="geometry">
            <mxPoint x="160" y="379.56" as="targetPoint" />
            <mxPoint x="160" y="860" as="sourcePoint" />
          </mxGeometry>
        </mxCell>
        <mxCell id="9Pz00_coDXl9NxjRs66u-54" style="edgeStyle=orthogonalEdgeStyle;rounded=0;orthogonalLoop=1;jettySize=auto;html=1;endArrow=none;startFill=0;" edge="1" parent="1">
          <mxGeometry relative="1" as="geometry">
            <mxPoint x="480" y="379.56" as="targetPoint" />
            <mxPoint x="480" y="860" as="sourcePoint" />
          </mxGeometry>
        </mxCell>
        <mxCell id="9Pz00_coDXl9NxjRs66u-58" style="edgeStyle=orthogonalEdgeStyle;rounded=0;orthogonalLoop=1;jettySize=auto;html=1;endArrow=none;startFill=0;" edge="1" parent="1">
          <mxGeometry relative="1" as="geometry">
            <mxPoint x="800" y="379.75" as="targetPoint" />
            <mxPoint x="800" y="860" as="sourcePoint" />
          </mxGeometry>
        </mxCell>
      </root>
    </mxGraphModel>
  </diagram>
</mxfile>
